Coordinates
version=1
nRows=29
nColumns=24
inDegrees=yes

Units are S.I. units (second, meters, Newtons, ...)
Angles are in degrees.

endheader
time	pelvis_tilt	pelvis_list	pelvis_rotation	pelvis_tx	pelvis_ty	pelvis_tz	hip_flexion_r	hip_adduction_r	hip_rotation_r	knee_angle_r	ankle_angle_r	subtalar_angle_r	mtp_angle_r	hip_flexion_l	hip_adduction_l	hip_rotation_l	knee_angle_l	ankle_angle_l	subtalar_angle_l	mtp_angle_l	lumbar_extension	lumbar_bending	lumbar_rotation
      7.29000000	      9.74888800	      3.99280866	      9.16796373	      3.01877784	      0.89525989	     -0.45963703	     13.49600093	     -2.67448803	    -13.37952198	     -4.36671816	     16.52194776	      6.31291601	      0.00000000	    -34.56910577	      6.12375185	     11.14201481	     -4.69479796	     10.89182126	    -13.45571654	      0.00000000	    -28.85335071	     -1.44243245	    -11.99346341
      7.30000000	      9.97881485	      3.92470620	      9.42868820	      3.03511664	      0.89388198	     -0.46006952	     14.12048514	     -2.64934157	    -13.81783986	     -7.67799213	     17.00389430	      7.81286926	      0.00000000	    -34.35419106	      5.66242493	      8.05122963	     -7.18597219	     12.29373849	     -8.59753056	      0.00000000	    -28.71475869	     -1.22429982	    -12.40898425
      7.31000000	     10.11904753	      3.74159276	      9.77164397	      3.05200155	      0.89253049	     -0.46048473	     14.54056044	     -2.45301520	    -13.68608693	    -10.49838598	     16.95436971	      8.60311761	      0.00000000	    -33.97751115	      4.94843293	      5.36754812	     -9.72895405	     12.73955359	     -4.71589448	      0.00000000	    -28.32102592	     -0.89537178	    -12.81020845
      7.32000000	     10.29847830	      3.44386285	     10.13472010	      3.06918110	      0.89147967	     -0.46075137	     14.68839596	     -2.03647542	    -13.12680079	    -12.83591506	     16.46561978	      8.76212300	      0.00000000	    -33.49846152	      4.00394060	      2.95439251	    -12.41210038	     12.39838528	     -1.51839790	      0.00000000	    -27.88864476	     -0.46313747	    -13.13325799
      7.33000000	     10.43723913	      3.08539805	     10.49755488	      3.08641889	      0.89071973	     -0.46087892	     14.77044028	     -1.50757558	    -12.40479974	    -14.87922323	     15.77637991	      8.43838760	      0.00000000	    -32.78162769	      2.93944373	      0.98372089	    -15.29591340	     11.21876104	      0.92205044	      0.00000000	    -27.38643362	     -0.00762709	    -13.37755409
      7.34000000	     10.63651211	      2.60472692	     10.81494126	      3.10359072	      0.89033981	     -0.46084982	     14.72650395	     -0.77392049	    -11.51951398	    -16.70655921	     15.20748119	      7.67570699	      0.00000000	    -31.89239355	      1.72624601	     -0.61620584	    -18.39868011	      9.28420863	      2.71272248	      0.00000000	    -26.94184769	      0.55987089	    -13.51577191
      7.35000000	     10.92574685	      2.05208210	     11.10757823	      3.12046320	      0.89036039	     -0.46073719	     14.56761250	      0.08726248	    -10.66670385	    -18.43851089	     14.81810248	      6.55597689	      0.00000000	    -30.81984248	      0.42267902	     -1.78955466	    -21.76198093	      6.70281527	      3.98735709	      0.00000000	    -26.64985732	      1.20824991	    -13.59211447
      7.36000000	     11.19947757	      1.44659343	     11.39381722	      3.13695180	      0.89057907	     -0.46061185	     14.40540574	      1.02915047	     -9.89478257	    -20.12398939	     14.87585107	      5.30617474	      0.00000000	    -29.43267929	     -0.90675039	     -2.48997665	    -25.40191347	      3.63860996	      4.86182990	      0.00000000	    -26.39837091	      1.90755960	    -13.62265757
      7.37000000	     11.45828084	      0.79660255	     11.73389304	      3.15291823	      0.89093197	     -0.46055866	     14.19402080	      2.03184155	     -9.29599672	    -21.69436805	     15.24982510	      4.03036021	      0.00000000	    -27.71645171	     -2.26953160	     -2.77920400	    -29.31797569	      0.41424125	      5.52707743	      0.00000000	    -26.21363587	      2.67227960	    -13.67558015
      7.38000000	     11.63708763	      0.10228709	     12.17221137	      3.16832055	      0.89128105	     -0.46062799	     13.94878833	      3.07866691	     -8.88768799	    -23.04478452	     15.87149133	      2.81542768	      0.00000000	    -25.62193761	     -3.65378871	     -2.70052748	    -33.45791423	     -2.62234110	      6.07471184	      0.00000000	    -26.01514706	      3.49706536	    -13.77547033
      7.39000000	     11.68616915	     -0.64674704	     12.76509990	      3.18317177	      0.89156757	     -0.46090452	     13.66162320	      4.15692205	     -8.69852159	    -24.04000795	     16.64869442	      1.74461894	      0.00000000	    -23.14125261	     -5.04445300	     -2.24047628	    -37.71662305	     -5.13813386	      6.49520897	      0.00000000	    -25.72684307	      4.40167154	    -13.90169478
      7.40000000	     11.61192689	     -1.43110187	     13.50833721	      3.19749212	      0.89182264	     -0.46138199	     13.30932499	      5.23420246	     -8.73549473	    -24.62603720	     17.47442411	      0.83875316	      0.00000000	    -20.33079236	     -6.40394201	     -1.51300774	    -41.98338399	     -6.89489441	      6.69398831	      0.00000000	    -25.34464866	      5.35613979	    -14.06577435
      7.41000000	     11.45195354	     -2.20712778	     14.38649266	      3.21136147	      0.89219281	     -0.46206332	     12.83051642	      6.26294559	     -8.99146143	    -24.76545099	     18.29611298	      0.14597169	      0.00000000	    -17.29393516	     -7.65489512	     -0.56137417	    -46.11773178	     -7.79327359	      6.56202216	      0.00000000	    -24.89897497	      6.31180881	    -14.23420996
      7.42000000	     11.25767821	     -2.91256453	     15.34046956	      3.22486646	      0.89285747	     -0.46290926	     12.17067543	      7.18973631	     -9.43213741	    -24.48334697	     19.07580991	     -0.30656689	      0.00000000	    -14.14124049	     -8.70216335	      0.51991834	    -50.00369108	     -7.88934625	      6.03905534	      0.00000000	    -24.45167410	      7.19058153	    -14.35795956
      7.43000000	     11.03863358	     -3.47550590	     16.29214846	      3.23812981	      0.89394494	     -0.46385347	     11.31375284	      7.96174345	     -9.94611457	    -23.82669852	     19.83026694	     -0.47850837	      0.00000000	    -10.95062531	     -9.43341631	      1.64208498	    -53.54165035	     -7.29681477	      5.16171406	      0.00000000	    -24.01626476	      7.89215076	    -14.43558186
      7.44000000	     10.84210367	     -3.84083351	     17.17253289	      3.25120488	      0.89555379	     -0.46483035	     10.24353409	      8.53222673	    -10.54162114	    -22.90993265	     20.52623501	     -0.40240709	      0.00000000	     -7.84731949	     -9.79874467	      2.69062782	    -56.65215256	     -6.17780235	      4.05923929	      0.00000000	    -23.67969153	      8.34826479	    -14.41557241
      7.45000000	     10.64732228	     -3.98651975	     17.89918348	      3.26419420	      0.89765795	     -0.46576284	      8.99757747	      8.89262459	    -11.11013632	    -21.81049135	     21.17829853	     -0.08695027	      0.00000000	     -4.92001598	     -9.77134732	      3.56887117	    -59.24818687	     -4.65119252	      2.90278498	      0.00000000	    -23.42787034	      8.51120003	    -14.26873185
      7.46000000	     10.44755016	     -3.91626367	     18.41251043	      3.27717283	      0.90019674	     -0.46658553	      7.60696958	      9.05365596	    -11.57869564	    -20.59626911	     21.79798630	      0.42843285	      0.00000000	     -2.26518562	     -9.38459850	      4.19331779	    -61.26220024	     -2.82611253	      1.84904359	      0.00000000	    -23.25955830	      8.37303820	    -13.96259256
      7.47000000	     10.23751732	     -3.65547895	     18.67265717	      3.29021592	      0.90307753	     -0.46722306	      6.08732326	      9.05824055	    -11.81789663	    -19.27655375	     22.23775307	      0.91615603	      0.00000000	      0.06329762	     -8.71898578	      4.49964742	    -62.67489597	     -0.74010636	      1.08995357	      0.00000000	    -23.16016407	      7.94705544	    -13.47757784
      7.48000000	      9.99867043	     -3.22074302	     18.66166114	      3.30336148	      0.90617300	     -0.46763476	      4.47676610	      8.91766833	    -11.73195058	    -17.87906769	     22.60170060	      1.37306583	      0.00000000	      2.08963622	     -7.82570912	      4.47037318	    -63.51650192	      1.34550564	      0.56694561	      0.00000000	    -23.10187656	      7.24617974	    -12.84974516
      7.49000000	      9.70812562	     -2.70557861	     18.41276955	      3.31664496	      0.90927440	     -0.46785503	      2.84650298	      8.68768510	    -11.44234152	    -16.41549457	     22.85182269	      1.80389616	      0.00000000	      3.93546396	     -6.83864041	      4.12569324	    -63.88740164	      3.29120778	      0.24172837	      0.00000000	    -23.00512168	      6.38327393	    -12.06105157
      7.50000000	      9.41825912	     -2.16924391	     17.96971492	      3.33007242	      0.91226418	     -0.46788472	      1.16091862	      8.44988751	    -10.89383784	    -14.86452178	     22.96505684	      2.09545714	      0.00000000	      5.62862100	     -5.87939822	      3.50171114	    -63.87829210	      5.11804108	      0.21995385	      0.00000000	    -22.89419505	      5.45350017	    -11.16287793
      7.51000000	      9.12576084	     -1.57675842	     17.37161497	      3.34359818	      0.91505925	     -0.46775208	     -0.58746766	      8.17575824	     -9.91436185	    -13.21051079	     22.82450606	      1.86269062	      0.00000000	      7.16983855	     -4.89790306	      2.67921619	    -63.49784976	      6.68967968	      0.28665548	      0.00000000	    -22.78097457	      4.42740291	    -10.18983090
      7.52000000	      8.81579549	     -1.00391516	     16.66568793	      3.35718996	      0.91747976	     -0.46753434	     -2.30970256	      7.88464520	     -8.76818689	    -11.54079254	     22.62222747	      1.50453604	      0.00000000	      8.61326910	     -3.97912923	      1.71722717	    -62.79235314	      8.13116292	      0.44655764	      0.00000000	    -22.61600675	      3.41152588	     -9.17765003
      7.53000000	      8.50747424	     -0.45652152	     15.91601686	      3.37079020	      0.91946470	     -0.46730261	     -4.00548520	      7.58065859	     -7.50786728	     -9.88043904	     22.35282844	      0.96886566	      0.00000000	      9.95671972	     -3.12626785	      0.69968204	    -61.79082185	      9.51646441	      0.70196258	      0.00000000	    -22.42438714	      2.44047885	     -8.18442529
      7.54000000	      8.19576631	      0.03380921	     15.15746749	      3.38434829	      0.92093171	     -0.46710526	     -5.64207177	      7.28990711	     -6.14876161	     -8.26210145	     22.05957582	      0.24494891	      0.00000000	     11.24057948	     -2.35316884	     -0.31250403	    -60.53407668	     10.83786215	      0.94788821	      0.00000000	    -22.20230419	      1.56141463	     -7.22138467
      7.55000000	      7.93096251	      0.47870652	     14.44212446	      3.39781651	      0.92192599	     -0.46701081	     -7.25766472	      7.00617189	     -4.87119740	     -6.71802548	     21.77380158	     -0.49369957	      0.00000000	     12.42902114	     -1.65073849	     -1.26310526	    -59.04764172	     12.12675179	      1.25593021	      0.00000000	    -22.02695539	      0.79089894	     -6.35765648
      7.56000000	      7.72582773	      0.86702190	     13.79288242	      3.41116688	      0.92245786	     -0.46706666	     -8.85408904	      6.74802131	     -3.73140056	     -5.26774331	     21.51873291	     -1.20751357	      0.00000000	     13.51800318	     -1.01317757	     -2.10992220	    -57.34342488	     13.34125240	      1.56494051	      0.00000000	    -21.92423513	      0.15225702	     -5.60209381
      7.57000000	      7.57761398	      1.17897096	     13.20957628	      3.42436936	      0.92251305	     -0.46725796	    -10.43532896	      6.54521465	     -2.65822285	     -3.89638443	     21.31969796	     -1.91751008	      0.00000000	     14.52809754	     -0.45703637	     -2.85255368	    -55.44743127	     14.43181290	      1.76843900	      0.00000000	    -21.90844417	     -0.34327109	     -4.93569515
